<?xml version="1.0" encoding="utf-8"?>
<!-- Generator: Adobe Illustrator 27.6.1, SVG Export Plug-In . SVG Version: 6.00 Build 0)  -->
<svg version="1.1" id="Calque_1" xmlns="http://www.w3.org/2000/svg" xmlns:xlink="http://www.w3.org/1999/xlink" x="0px" y="0px"
	 viewBox="0 0 1080 1080" style="enable-background:new 0 0 1080 1080;" xml:space="preserve">
<style type="text/css">
	.st0{fill:#F7F1F9;}
	.st1{fill:#FFFFFF;}
	.st2{fill:#F45A01;}
	.st3{fill:#733790;}
	.st4{fill:#361A3D;}
	.st5{fill:#2A002B;}
	.st6{fill:#120917;}
	.st7{fill:none;stroke:#733790;stroke-width:10;stroke-linecap:square;stroke-miterlimit:10;}
	.st8{fill:none;}
</style>
<g>
	<g id="NEXUS_00000161590467369212743310000004257256669990749116_">
		<path id="N_00000011024336791799351240000009960401764577605525_" class="st0" d="M183.1,632.6h27.7V525.1l102,107.8H334V474.8
			h-28.5v105l-101.1-105h-21C183.4,474.8,183.1,633.7,183.1,632.6z"/>
		<path id="E_00000166646120039446261290000015032361552522884252_" class="st0" d="M365.2,632.9h73.5l22.9-33.2h-67v-34.9h32.1
			l22.3-26.3h-53.9v-34.1h43.6l25.1-29.6h-98.1C365.8,474.8,365.2,633.5,365.2,632.9z"/>
		<polygon id="X_00000130609384822270815930000017392071757026781880_" class="st0" points="471.6,474.5 504.9,474.5 538.4,524.5 
			569.7,474.5 603.5,474.5 553.5,551.9 603.9,632.6 572.7,632.6 538.7,582.1 505.1,632.9 471.8,632.9 523.3,551.9 		"/>
		<path id="U_00000087390022253828553010000004616540012454040467_" class="st0" d="M621.1,474.5h29.3v108c0,9.5,7.7,17.2,17.2,17.2
			H711c9.5,0,17.2-7.7,17.2-17.2V475.1h29.1v108.2c0,27.2-22.1,49.3-49.3,49.3h-37.5c-27.2,0-49.3-22-49.3-49.2
			C620.9,537,620.8,474.5,621.1,474.5z"/>
		<path id="S_00000146500292738055938210000013785667895424854679_" class="st0" d="M774.7,633.1l27-33.9h48.8
			c9.2,0,16.6-7.4,16.6-16.6l0,0c0-7.9-5.5-14.6-13.2-16.2l-36.6-7.6c-19.9-4.1-34.1-21.7-34.1-41.9v0c0-23.7,19.2-42.9,42.9-42.9
			h70.8l-25,30.5h-48.4c-6.5,0-11.8,5.3-11.8,11.8l0,0c0,5.2,3.4,9.7,8.3,11.3l47.9,15.1c17.1,5.4,28.7,21.2,28.7,39v8
			c0,24-19.4,43.5-43.4,43.7C817.9,633.6,774.1,633.8,774.7,633.1z"/>
	</g>
	<polygon class="st3" points="373.9,450.3 491.6,450.3 432.6,391.6 	"/>
	<polygon class="st3" points="584.2,450.3 701.9,450.3 642.9,391.6 	"/>
	<polygon class="st0" points="538.1,458.8 626.9,373.3 615.4,359.6 538.1,433.5 461.2,360 448.9,373.3 	"/>
	<path class="st2" d="M538.2,284.8c-0.1,14.3-46.4,62.9-60.3,63.2c13.8-0.3,60.2,46.7,60.3,60.9c-0.1-14.3,46-61.2,59.8-60.9
		C584.2,347.7,538.2,299,538.2,284.8z M538.2,368.9c0-4.9-16-21.1-20.7-21c4.8-0.1,20.7-16.8,20.7-21.7c0,4.9,15.8,21.7,20.6,21.7
		C554,347.9,538.2,364,538.2,368.9z"/>
	<polygon class="st2" points="285.9,450.6 342.3,450.6 538.1,257.1 733.6,450.4 790.8,450.4 537.8,200.8 	"/>
	<polygon class="st3" points="603.3,239.8 603.3,206.3 538,141.8 471.5,206.5 471.5,239.8 538,175.6 	"/>
	<path class="st2" d="M682.9,474.4v93.2l7.1,8l7.2-8v-93.2C697.3,474.4,682.5,474.8,682.9,474.4z"/>
	<polygon class="st2" points="406.5,756.8 457.8,757.4 537.6,833.9 617.7,757.1 670.3,757.1 538.2,881.9 	"/>
	<polygon class="st0" points="471.6,845.4 471.6,875.4 538,938.3 603.4,875.4 603.4,845.4 538.2,909.8 	"/>
	<g>
		<path class="st3" d="M424.7,203.2l-219,209.4C243.7,314.1,324.2,236.8,424.7,203.2z"/>
		<path class="st3" d="M869.7,411.8l-218-208.4C751.7,237.1,831.7,314,869.7,411.8z"/>
		<path class="st3" d="M869.5,670.2c-38,97.3-117.7,173.8-217,207.5L869.5,670.2z"/>
		<path class="st3" d="M424.2,878.1C324.1,844.4,244,767.4,205.9,669.4L424.2,878.1z"/>
	</g>
	<path class="st2" d="M804.5,276.6l-3.6-3.5c-54.6-53.7-123.1-89-198.2-102.1l-1.5-0.3l-63.5-62l-63.6,62l-1.5,0.3
		c-75,13.1-143.5,48.4-198.1,102.1l-3.6,3.5l-7-7.1l3.6-3.5c55.7-54.8,125.4-90.9,201.8-104.6l68.4-66.7l68.2,66.7
		C682.4,175,752.2,211.2,807.9,266l3.6,3.5L804.5,276.6z"/>
	<path class="st2" d="M537.8,985.3l-68.3-65.4c-76.4-13.7-146.2-49.8-201.9-104.6l-3.6-3.5l7-7.1l3.6,3.5
		c54.6,53.7,123.1,89,198.1,102.1l1.5,0.3l63.6,60.9l63.5-60.9l1.5-0.3c75-13.1,143.6-48.4,198.2-102.1l3.6-3.5l7,7.1l-3.6,3.5
		c-55.7,54.8-125.5,90.9-202,104.6L537.8,985.3z"/>
	<g>
		<circle class="st0" cx="663.9" cy="272.3" r="16.1"/>
		<circle class="st0" cx="790.3" cy="393.7" r="16.1"/>
		<circle class="st0" cx="727.1" cy="333" r="20"/>
		<circle class="st0" cx="695.5" cy="302.7" r="12.4"/>
		<circle class="st0" cx="758.7" cy="363.4" r="12.4"/>
	</g>
	<g>
		<circle class="st0" cx="409.7" cy="272.3" r="16.1"/>
		<circle class="st0" cx="283.4" cy="393.7" r="16.1"/>
		<circle class="st0" cx="346.6" cy="333" r="20"/>
		<circle class="st0" cx="378.1" cy="302.7" r="12.4"/>
		<circle class="st0" cx="315" cy="363.4" r="12.4"/>
	</g>
	<g>
		<circle class="st0" cx="663.9" cy="819.9" r="16.1"/>
		<circle class="st0" cx="790.3" cy="698.5" r="16.1"/>
		<circle class="st0" cx="727.1" cy="759.2" r="20"/>
		<circle class="st0" cx="695.5" cy="789.6" r="12.4"/>
		<circle class="st0" cx="758.7" cy="728.9" r="12.4"/>
	</g>
	<g>
		<circle class="st0" cx="409.7" cy="819.9" r="16.1"/>
		<circle class="st0" cx="283.4" cy="698.5" r="16.1"/>
		<circle class="st0" cx="346.6" cy="759.2" r="20"/>
		<circle class="st0" cx="378.1" cy="789.6" r="12.4"/>
		<circle class="st0" cx="315" cy="728.9" r="12.4"/>
	</g>
	<g>
		<polygon class="st0" points="553.4,704.2 540.8,704.2 540.8,698.9 551.6,698.9 551.6,692.2 540.8,692.2 540.8,686.9 552.5,686.9 
			553.6,679.4 531.7,679.4 531.7,711.8 553.4,711.8 		"/>
		<path class="st0" d="M538.1,745.5c0,4.9-15.9,21.6-20.7,21.7c4.8,0,20.6,16.1,20.7,21c0-4.9,15.7-21,20.5-21
			C553.8,767,538.1,750.4,538.1,745.5z"/>
		<path class="st0" d="M675.5,709.1c1,1.3,2.3,2.1,4,2.7c1.7,0.5,3.8,0.8,6.4,0.8c2.8,0,5.2-0.2,7.2-0.5c2-0.3,3.9-0.9,5.6-1.7
			v-17.6h-11.8v6.7h3.2v5.7h-7.6v-15.3c0-1.5,0.4-2.5,1.1-3c0.8-0.5,2.1-0.7,4-0.7c0.7,0,1.6,0.1,2.5,0.1c1,0.1,2,0.2,3,0.3
			c1,0.1,2,0.3,2.9,0.5l1.1-7.2c-0.6-0.2-1.5-0.4-2.6-0.6c-1.1-0.2-2.4-0.4-3.6-0.5c-1.3-0.1-2.5-0.2-3.5-0.2
			c-2.9,0-5.2,0.3-7.1,0.8s-3.4,1.4-4.5,2.7c-1.1,1.3-1.9,3-2.4,5.2c-0.5,2.2-0.7,4.9-0.7,8.2c0,3.3,0.2,6.1,0.6,8.3
			C673.8,706.1,674.5,707.8,675.5,709.1z"/>
		<polygon class="st0" points="508,692.3 498.9,692.3 498.9,679.4 489.8,679.4 489.8,711.8 498.9,711.8 498.9,699 508,699 
			508,711.8 517.1,711.8 517.1,679.4 508,679.4 		"/>
		<path class="st0" d="M391,699.4h3.2v5.7h-7.6v-15.3c0-1.5,0.4-2.5,1.1-3c0.8-0.5,2.1-0.7,4-0.7c0.7,0,1.6,0.1,2.5,0.1
			c1,0.1,2,0.2,3,0.3c1,0.1,2,0.3,2.9,0.5l1.1-7.2c-0.6-0.2-1.5-0.4-2.6-0.6c-1.1-0.2-2.4-0.4-3.7-0.5c-1.3-0.1-2.5-0.2-3.5-0.2
			c-2.9,0-5.2,0.3-7.1,0.8c-1.9,0.6-3.4,1.4-4.5,2.7c-1.1,1.3-1.9,3-2.4,5.2c-0.5,2.2-0.7,4.9-0.7,8.2c0,3.3,0.2,6.1,0.6,8.3
			c0.4,2.2,1.1,3.9,2.1,5.2c1,1.3,2.3,2.1,4,2.7c1.7,0.5,3.8,0.8,6.4,0.8c2.8,0,5.2-0.2,7.2-0.5c2-0.3,3.9-0.9,5.6-1.7v-17.6H391
			V699.4z"/>
		<path class="st0" d="M421.9,679.4l-8.6,32.3h9.1l1.5-5.6H434l1.5,5.6h9.1l-8.6-32.3H421.9z M425.7,699.4l3-11.3h0.5l3,11.3H425.7z
			"/>
		<polygon class="st0" points="453.7,686.9 461.2,686.9 461.2,711.8 470.3,711.8 470.3,686.9 477.9,686.9 477.9,679.4 453.7,679.4 
					"/>
		<path class="st0" d="M576.1,701.9h3.8l4.7,9.9h9.9l-5.4-11.4c0.5-0.3,1-0.7,1.4-1.1c1.7-1.7,2.6-4.4,2.6-8.2c0-2.8-0.4-5-1.2-6.8
			c-0.8-1.7-2-3-3.7-3.8c-1.7-0.8-3.9-1.2-6.7-1.2H567v32.3h9.1V701.9z M576.1,686.9h5c0.9,0,1.5,0.2,1.9,0.5
			c0.4,0.3,0.6,0.9,0.6,1.7v3.9c0,0.8-0.2,1.4-0.6,1.7c-0.4,0.3-1,0.5-1.9,0.5h-5V686.9z"/>
		<rect x="607.1" y="679.4" class="st0" width="9.1" height="32.3"/>
		<path class="st0" d="M640.1,694.7h0.3c0,0.5,0.1,1,0.3,1.5c0.2,0.5,0.5,1.2,1,2l8.3,13.4h9v-32.3H650v17h-0.3c0-0.5-0.1-1-0.3-1.6
			c-0.2-0.5-0.5-1.2-1-2l-8.4-13.5H631v32.3h9.1V694.7z"/>
		<path class="st3" d="M583,694.7c0.4-0.3,0.6-0.9,0.6-1.7v-3.9c0-0.8-0.2-1.4-0.6-1.7c-0.4-0.3-1-0.5-1.9-0.5h-5v8.3h5
			C582,695.2,582.6,695,583,694.7z"/>
		<polygon class="st3" points="428.7,688.1 425.7,699.4 432.2,699.4 429.2,688.1 		"/>
		<g>
			<polygon class="st8" points="453.7,686.9 461.2,686.9 461.2,711.8 470.3,711.8 470.3,686.9 477.9,686.9 477.9,679.4 453.7,679.4 
							"/>
			<polygon class="st8" points="508,692.3 498.9,692.3 498.9,679.4 489.8,679.4 489.8,711.8 498.9,711.8 498.9,699 508,699 
				508,711.8 517.1,711.8 517.1,679.4 508,679.4 			"/>
			<polygon class="st8" points="421.9,679.4 413.3,711.8 422.4,711.8 423.9,706.1 434,706.1 435.5,711.8 444.6,711.8 436,679.4 			
				"/>
			<path class="st8" d="M391,699.4h3.2v5.7h-7.6v-15.3c0-1.5,0.4-2.5,1.1-3c0.8-0.5,2.1-0.7,4-0.7c0.7,0,1.6,0.1,2.5,0.1
				c1,0.1,2,0.2,3,0.3c1,0.1,2,0.3,2.9,0.5l1.1-7.2c-0.6-0.2-1.5-0.4-2.6-0.6c-1.1-0.2-2.4-0.4-3.7-0.5c-1.3-0.1-2.5-0.2-3.5-0.2
				c-2.9,0-5.2,0.3-7.1,0.8c-1.9,0.6-3.4,1.4-4.5,2.7c-1.1,1.3-1.9,3-2.4,5.2c-0.5,2.2-0.7,4.9-0.7,8.2c0,3.3,0.2,6.1,0.6,8.3
				c0.4,2.2,1.1,3.9,2.1,5.2c1,1.3,2.3,2.1,4,2.7c1.7,0.5,3.8,0.8,6.4,0.8c2.8,0,5.2-0.2,7.2-0.5c2-0.3,3.9-0.9,5.6-1.7v-17.6H391
				V699.4z"/>
			<polygon class="st8" points="553.4,704.2 540.8,704.2 540.8,698.9 551.6,698.9 551.6,692.2 540.8,692.2 540.8,686.9 552.5,686.9 
				553.6,679.4 531.7,679.4 531.7,711.8 553.4,711.8 			"/>
			<path class="st8" d="M576.1,701.9h3.8l4.7,9.9h9.9l-5.4-11.4c0.5-0.3,1-0.7,1.4-1.1c1.7-1.7,2.6-4.4,2.6-8.2c0-2.8-0.4-5-1.2-6.8
				c-0.8-1.7-2-3-3.7-3.8c-1.7-0.8-3.9-1.2-6.7-1.2H567v32.3h9.1V701.9z"/>
			<rect x="607.1" y="679.4" class="st8" width="9.1" height="32.3"/>
			<path class="st8" d="M675.5,709.1c1,1.3,2.3,2.1,4,2.7c1.7,0.5,3.8,0.8,6.4,0.8c2.8,0,5.2-0.2,7.2-0.5c2-0.3,3.9-0.9,5.6-1.7
				v-17.6h-11.8v6.7h3.2v5.7h-7.6v-15.3c0-1.5,0.4-2.5,1.1-3c0.8-0.5,2.1-0.7,4-0.7c0.7,0,1.6,0.1,2.5,0.1c1,0.1,2,0.2,3,0.3
				c1,0.1,2,0.3,2.9,0.5l1.1-7.2c-0.6-0.2-1.5-0.4-2.6-0.6c-1.1-0.2-2.4-0.4-3.6-0.5c-1.3-0.1-2.5-0.2-3.5-0.2
				c-2.9,0-5.2,0.3-7.1,0.8s-3.4,1.4-4.5,2.7c-1.1,1.3-1.9,3-2.4,5.2c-0.5,2.2-0.7,4.9-0.7,8.2c0,3.3,0.2,6.1,0.6,8.3
				C673.8,706.1,674.5,707.8,675.5,709.1z"/>
			<path class="st8" d="M538.1,745.5c0,4.9-15.9,21.6-20.7,21.7c4.8,0,20.6,16.1,20.7,21c0-4.9,15.7-21,20.5-21
				C553.8,767,538.1,750.4,538.1,745.5z"/>
			<path class="st8" d="M640.1,694.7h0.3c0,0.5,0.1,1,0.3,1.5c0.2,0.5,0.5,1.2,1,2l8.3,13.4h9v-32.3H650v17h-0.3
				c0-0.5-0.1-1-0.3-1.6c-0.2-0.5-0.5-1.2-1-2l-8.4-13.5H631v32.3h9.1V694.7z"/>
			<path class="st3" d="M701.3,733.5l80.5-76.8l-485.6-0.1l69.4,76.5l139.3-0.1l14.9,9.7l-21.5,22.9l39.8,41.9l39.5-41.7l-22.2-23.1
				l12.7-9.8L701.3,733.5z M402.7,710.3c-1.7,0.8-3.6,1.4-5.6,1.7c-2,0.3-4.4,0.5-7.2,0.5c-2.5,0-4.7-0.3-6.4-0.8
				c-1.7-0.5-3-1.4-4-2.7c-1-1.3-1.7-3-2.1-5.2c-0.4-2.2-0.6-5-0.6-8.3c0-3.3,0.2-6.1,0.7-8.2c0.5-2.2,1.2-3.9,2.4-5.2
				c1.1-1.3,2.6-2.2,4.5-2.7c1.9-0.6,4.2-0.8,7.1-0.8c1.1,0,2.2,0.1,3.5,0.2c1.3,0.1,2.5,0.3,3.7,0.5c1.1,0.2,2,0.4,2.6,0.6
				l-1.1,7.2c-0.9-0.2-1.9-0.4-2.9-0.5c-1-0.1-2-0.2-3-0.3c-1-0.1-1.8-0.1-2.5-0.1c-1.9,0-3.2,0.2-4,0.7c-0.8,0.5-1.1,1.5-1.1,3
				v15.3h7.6v-5.7H391v-6.7h11.8V710.3z M435.5,711.8l-1.5-5.6h-10.1l-1.5,5.6h-9.1l8.6-32.3H436l8.6,32.3H435.5z M477.9,686.9h-7.6
				v24.8h-9.1v-24.8h-7.6v-7.5h24.2V686.9z M517.1,711.8H508V699h-9.1v12.8h-9.1v-32.3h9.1v12.9h9.1v-12.9h9.1V711.8z M531.7,679.4
				h21.9l-1.1,7.5h-11.6v5.3h10.8v6.7h-10.8v5.3h12.6v7.5h-21.7V679.4z M558.6,767.2c-4.8,0-20.5,16.1-20.5,21
				c0-4.9-15.9-21-20.7-21c4.8-0.2,20.6-16.8,20.7-21.7C538.1,750.4,553.8,767,558.6,767.2z M673.5,687.4c0.5-2.2,1.2-3.9,2.4-5.2
				c1.1-1.3,2.6-2.2,4.5-2.7s4.2-0.8,7.1-0.8c1.1,0,2.2,0.1,3.5,0.2c1.3,0.1,2.5,0.3,3.6,0.5c1.1,0.2,2,0.4,2.6,0.6l-1.1,7.2
				c-0.9-0.2-1.9-0.4-2.9-0.5c-1-0.1-2-0.2-3-0.3c-1-0.1-1.8-0.1-2.5-0.1c-1.9,0-3.2,0.2-4,0.7c-0.8,0.5-1.1,1.5-1.1,3v15.3h7.6
				v-5.7h-3.2v-6.7h11.8v17.6c-1.7,0.8-3.6,1.4-5.6,1.7c-2,0.3-4.5,0.5-7.2,0.5c-2.6,0-4.7-0.3-6.4-0.8c-1.7-0.5-3-1.4-4-2.7
				c-1-1.3-1.6-3-2.1-5.2c-0.4-2.2-0.6-5-0.6-8.3C672.8,692.3,673,689.6,673.5,687.4z M631,679.4h8.9l8.4,13.5c0.5,0.8,0.8,1.5,1,2
				c0.2,0.5,0.3,1.1,0.3,1.6h0.3v-17h9.1v32.3h-9l-8.3-13.4c-0.5-0.8-0.8-1.5-1-2c-0.2-0.5-0.3-1.1-0.3-1.5h-0.3v17H631V679.4z
				 M607.1,679.4h9.1v32.3h-9.1V679.4z M567,679.4h14.5c2.8,0,5,0.4,6.7,1.2c1.7,0.8,3,2,3.7,3.8c0.8,1.7,1.2,4,1.2,6.8
				c0,3.7-0.9,6.5-2.6,8.2c-0.4,0.4-0.9,0.8-1.4,1.1l5.4,11.4h-9.9l-4.7-9.9h-3.8v9.9H567V679.4z"/>
		</g>
	</g>
</g>
</svg>
