<?xml version="1.0" encoding="utf-8"?>
<!-- Generator: Adobe Illustrator 27.6.1, SVG Export Plug-In . SVG Version: 6.00 Build 0)  -->
<svg version="1.1" id="Calque_1" xmlns="http://www.w3.org/2000/svg" xmlns:xlink="http://www.w3.org/1999/xlink" x="0px" y="0px"
	 viewBox="0 0 1080 540" style="enable-background:new 0 0 1080 540;" xml:space="preserve">
<style type="text/css">
	.st0{fill:#F7F1F9;}
	.st1{fill:#FFFFFF;}
	.st2{fill:#F45A01;}
	.st3{fill:#733790;}
	.st4{fill:#361A3D;}
	.st5{fill:#2A002B;}
	.st6{fill:#120917;}
	.st7{fill:none;stroke:#733790;stroke-width:10;stroke-linecap:square;stroke-miterlimit:10;}
	.st8{fill:none;}
</style>
<g>
	<g id="NEXUS_00000031885890974738946290000012271776456730447776_">
		<path id="N_00000090275498443693998060000017416530985254545846_" class="st0" d="M316.5,313.1h27.7V205.6l102,107.8h21.2V155.3
			h-28.5v105l-101.1-105h-21C316.8,155.3,316.5,314.3,316.5,313.1z"/>
		<path id="E_00000016077534773772056720000004244952024934838968_" class="st0" d="M498.6,313.4h73.5l22.9-33.2h-67v-34.9h32.1
			l22.3-26.3h-53.9v-34.1h43.6l25.1-29.6h-98.1C499.2,155.3,498.6,314,498.6,313.4z"/>
		<polygon id="X_00000062870578107341381170000011215989887595068033_" class="st0" points="605,155 638.2,155 671.8,205 703,155 
			736.8,155 686.8,232.4 737.2,313.1 706.1,313.1 672,262.6 638.5,313.4 605.2,313.4 656.7,232.4 		"/>
		<path id="U_00000123435537922007807080000008285310427060007570_" class="st0" d="M754.5,155h29.3v108c0,9.5,7.7,17.2,17.2,17.2
			h43.3c9.5,0,17.2-7.7,17.2-17.2V155.6h29.1v108.2c0,27.2-22.1,49.3-49.3,49.3h-37.5c-27.2,0-49.3-22-49.3-49.2
			C754.3,217.5,754.2,155,754.5,155z"/>
		<path id="S_00000145772724591540341890000010505492134380943271_" class="st0" d="M908.1,313.7l27-33.9h48.8
			c9.2,0,16.6-7.4,16.6-16.6v0c0-7.9-5.5-14.6-13.2-16.2l-36.6-7.6c-19.9-4.1-34.1-21.7-34.1-41.9v0c0-23.7,19.2-42.9,42.9-42.9
			h70.8l-25,30.5h-48.4c-6.5,0-11.8,5.3-11.8,11.8v0c0,5.2,3.4,9.7,8.3,11.3l47.9,15.1c17.1,5.4,28.7,21.2,28.7,39v8
			c0,24-19.4,43.5-43.4,43.7C951.3,314.2,907.5,314.3,908.1,313.7z"/>
	</g>
	<path class="st2" d="M161.8,154.5c-0.1,26.6-86.4,117.1-112.1,117.5c25.7-0.5,112,86.8,112.1,113.4
		c-0.1-26.6,85.5-113.9,111.2-113.4C247.4,271.6,161.7,181.1,161.8,154.5z M161.7,311.1c0-9.1-29.7-39.2-38.6-39
		c8.8-0.2,38.5-31.3,38.6-40.4c0,9.1,29.4,40.3,38.3,40.4C191.1,271.9,161.7,301.9,161.7,311.1z"/>
	<path class="st2" d="M816.3,154.5v93.2l7.1,8l7.2-8v-93.2C830.6,154.5,815.9,154.9,816.3,154.5z"/>
	<g>
		<path class="st0" d="M737.4,359.6v23c-2.3,1-4.7,1.8-7.4,2.2c-2.7,0.5-5.8,0.7-9.5,0.7c-3.3,0-6.1-0.3-8.3-1
			c-2.2-0.7-3.9-1.8-5.2-3.5c-1.3-1.6-2.2-3.9-2.7-6.8c-0.5-2.9-0.8-6.5-0.8-10.9c0-4.3,0.3-7.9,0.9-10.8c0.6-2.9,1.6-5.1,3.1-6.8
			c1.4-1.6,3.4-2.8,5.8-3.5c2.5-0.7,5.6-1.1,9.3-1.1c1.4,0,2.9,0.1,4.6,0.2c1.7,0.2,3.3,0.4,4.8,0.6c1.5,0.2,2.6,0.5,3.5,0.8
			l-1.5,9.5c-1.2-0.3-2.4-0.5-3.8-0.7c-1.3-0.2-2.7-0.3-3.9-0.4c-1.3-0.1-2.4-0.2-3.3-0.2c-2.5,0-4.2,0.3-5.2,1
			c-1,0.6-1.5,1.9-1.5,3.9v20h9.9v-7.5h-4.1v-8.7H737.4z"/>
		<path class="st0" d="M685.6,342.2v42.3h-11.8l-10.9-17.6c-0.6-1.1-1.1-2-1.3-2.7c-0.2-0.7-0.4-1.4-0.4-2h-0.4v22.3h-11.9v-42.3
			h11.7l11,17.6c0.6,1,1.1,1.9,1.3,2.6c0.2,0.7,0.4,1.4,0.4,2.1h0.4v-22.3H685.6z"/>
		<rect x="617.7" y="342.2" class="st0" width="11.9" height="42.3"/>
		<path class="st0" d="M594,369.6c0.7-0.4,1.3-0.9,1.9-1.5c2.2-2.2,3.4-5.8,3.4-10.7c0-3.7-0.5-6.6-1.5-8.9c-1-2.2-2.6-3.9-4.9-4.9
			c-2.2-1-5.2-1.5-8.8-1.5h-18.9v42.3h11.9v-12.9h5l6.1,12.9h12.9L594,369.6z M586.8,359.9c0,1.1-0.2,1.8-0.7,2.2
			c-0.5,0.4-1.3,0.6-2.5,0.6h-6.6V352h6.6c1.2,0,2,0.2,2.5,0.6c0.5,0.4,0.7,1.2,0.7,2.2V359.9z"/>
		<polygon class="st0" points="531,374.6 547.5,374.6 547.5,384.4 519.1,384.4 519.1,342.2 547.7,342.2 546.2,352 531,352 
			531,358.9 545.1,358.9 545.1,367.7 531,367.7 		"/>
		<polygon class="st0" points="500,342.2 500,384.4 488.1,384.4 488.1,367.7 476.2,367.7 476.2,384.4 464.3,384.4 464.3,342.2 
			476.2,342.2 476.2,359 488.1,359 488.1,342.2 		"/>
		<polygon class="st0" points="448.7,342.2 448.7,352 438.8,352 438.8,384.4 426.9,384.4 426.9,352 417,352 417,342.2 		"/>
		<path class="st0" d="M393.9,342.2h-18.5l-11.2,42.3h11.9l2-7.4h13.2l2,7.4h11.9L393.9,342.2z M380.4,368.3l3.9-14.8h0.6l3.9,14.8
			H380.4z"/>
		<path class="st0" d="M350.4,359.6v23c-2.3,1-4.7,1.8-7.4,2.2c-2.7,0.5-5.8,0.7-9.5,0.7c-3.3,0-6.1-0.3-8.3-1
			c-2.2-0.7-3.9-1.8-5.2-3.5c-1.3-1.6-2.2-3.9-2.7-6.8c-0.5-2.9-0.8-6.5-0.8-10.9c0-4.3,0.3-7.9,0.9-10.8c0.6-2.9,1.6-5.1,3.1-6.8
			c1.4-1.6,3.4-2.8,5.8-3.5c2.5-0.7,5.6-1.1,9.3-1.1c1.4,0,2.9,0.1,4.6,0.2c1.7,0.2,3.3,0.4,4.8,0.6c1.5,0.2,2.6,0.5,3.5,0.8
			l-1.5,9.5c-1.2-0.3-2.4-0.5-3.8-0.7c-1.3-0.2-2.7-0.3-3.9-0.4c-1.3-0.1-2.4-0.2-3.3-0.2c-2.5,0-4.2,0.3-5.2,1
			c-1,0.6-1.5,1.9-1.5,3.9v20h9.9v-7.5H335v-8.7H350.4z"/>
	</g>
</g>
</svg>
